{"title":"Chris Brown - Yeah 3X [KingPinMKVideos] {MKV}","uid":5902059,"size":100452967,"categoryP":"video","categoryS":"music_videos","magnet":"?xt=urn:btih:52d7945c9aa3c20c1e0565ef182f367599921326&amp;dn=Chris+Brown+-+Yeah+3X+%5BKingPinMKVideos%5D+%7BMKV%7D&amp;tr=udp%3A%2F%2Ftracker.openbittorrent.com%3A80&amp;tr=udp%3A%2F%2Fopen.demonii.com%3A1337&amp;tr=udp%3A%2F%2Ftracker.coppersurfer.tk%3A6969&amp;tr=udp%3A%2F%2Fexodus.desync.com%3A6969","seeders":1,"leechers":0,"uploader":"KingPinMan","files":5,"time":1287713088,"description":"[img]http://img576.imageshack.us/img576/883/chrisbrownyeah3.png[/img]\n\n[img]http://img179.imageshack.us/img179/8636/chrisbrownyeah32.png[/img]\n\n[code]General\nComplete name                    : Chris Brown - Yeah 3x [KingPinMKVideos].mkv\nFormat                           : Matroska\nFile size                        : 95.8 MiB\nDuration                         : 4mn 21s\nOverall bit rate                 : 3 072 Kbps\nEncoded date                     : UTC 2010-10-21 21:59:58\nWriting application              : mkvmerge v4.0.0 ('The Stars were mine') built on Jun  6 2010 16:18:42\nWriting library                  : libebml v1.0.0 + libmatroska v1.0.0\n\nVideo\nID                               : 1\nFormat                           : AVC\nFormat/Info                      : Advanced Video Codec\nFormat profile                   : &lt;a class=&quot;__cf_email__&quot; href=&quot;/cdn-cgi/l/email-protection&quot; data-cfemail=&quot;410c20282f010d756f70&quot;&gt;[email&amp;#160;protected]&lt;/a&gt;&lt;script cf-hash='f9e31' type=&quot;text/javascript&quot;&gt;\n/* &lt;![CDATA[ */!function(){try{var t=&quot;currentScript&quot;in document?document.currentScript:function(){for(var t=document.getElementsByTagName(&quot;script&quot;),e=t.length;e--;)if(t[e].getAttribute(&quot;cf-hash&quot;))return t[e]}();if(t&amp;&amp;t.previousSibling){var e,r,n,i,c=t.previousSibling,a=c.getAttribute(&quot;data-cfemail&quot;);if(a){for(e=&quot;&quot;,r=parseInt(a.substr(0,2),16),n=2;a.length-n;n+=2)i=parseInt(a.substr(n,2),16)^r,e+=String.fromCharCode(i);e=document.createTextNode(e),c.parentNode.replaceChild(e,c)}}}catch(u){}}();/* ]]&gt; */&lt;/script&gt;\nFormat settings, CABAC           : Yes\nFormat settings, ReFrames        : 4 frames\nMuxing mode                      : Container profile=&lt;a class=&quot;__cf_email__&quot; href=&quot;/cdn-cgi/l/email-protection&quot; data-cfemail=&quot;90c5fefbfeffe7fed0a4bea1&quot;&gt;[email&amp;#160;protected]&lt;/a&gt;&lt;script cf-hash='f9e31' type=&quot;text/javascript&quot;&gt;\n/* &lt;![CDATA[ */!function(){try{var t=&quot;currentScript&quot;in document?document.currentScript:function(){for(var t=document.getElementsByTagName(&quot;script&quot;),e=t.length;e--;)if(t[e].getAttribute(&quot;cf-hash&quot;))return t[e]}();if(t&amp;&amp;t.previousSibling){var e,r,n,i,c=t.previousSibling,a=c.getAttribute(&quot;data-cfemail&quot;);if(a){for(e=&quot;&quot;,r=parseInt(a.substr(0,2),16),n=2;a.length-n;n+=2)i=parseInt(a.substr(n,2),16)^r,e+=String.fromCharCode(i);e=document.createTextNode(e),c.parentNode.replaceChild(e,c)}}}catch(u){}}();/* ]]&gt; */&lt;/script&gt;\nCodec ID                         : V_MPEG4/ISO/AVC\nDuration                         : 4mn 21s\nBit rate                         : 2 787 Kbps\nNominal bit rate                 : 2 838 Kbps\nWidth                            : 576 pixels\nHeight                           : 324 pixels\nDisplay aspect ratio             : 16:9\nFrame rate                       : 23.976 fps\nResolution                       : 8 bits\nColorimetry                      : 4:2:0\nScan type                        : Progressive\nBits/(Pixel*Frame)               : 0.623\nStream size                      : 86.8 MiB (91%)\nWriting library                  : x264 core 98 r1649 20cbe10\n\nAudio\nID                               : 2\nFormat                           : MPEG Audio\nFormat version                   : Version 1\nFormat profile                   : Layer 2\nCodec ID                         : A_MPEG/L2\nCodec ID/Hint                    : MP2\nDuration                         : 4mn 21s\nBit rate mode                    : Constant\nBit rate                         : 224 Kbps\nChannel(s)                       : 2 channels\nSampling rate                    : 44.1 KHz\nVideo delay                      : 85ms\nStream size                      : 6.98 MiB (7%)[/code]","torrent":{"xt":"urn:btih:52d7945c9aa3c20c1e0565ef182f367599921326","amp;dn":"Chris+Brown+-+Yeah+3X+%5BKingPinMKVideos%5D+%7BMKV%7D","amp;tr":["udp%3A%2F%2Ftracker.openbittorrent.com%3A80","udp%3A%2F%2Fopen.demonii.com%3A1337","udp%3A%2F%2Ftracker.coppersurfer.tk%3A6969","udp%3A%2F%2Fexodus.desync.com%3A6969"],"infoHash":"52d7945c9aa3c20c1e0565ef182f367599921326","infoHashBuffer":{"type":"Buffer","data":[82,215,148,92,154,163,194,12,30,5,101,239,24,47,54,117,153,146,19,38]},"announce":[],"urlList":[]}}